<?xml version="1.0" encoding="iso-8859-1"?>
<!-- Generator: Adobe Illustrator 20.0.0, SVG Export Plug-In . SVG Version: 6.00 Build 0)  -->
<svg version="1.1" id="Layer_1_1_" xmlns="http://www.w3.org/2000/svg" xmlns:xlink="http://www.w3.org/1999/xlink" x="0px" y="0px"
	 viewBox="0 0 64 64" style="enable-background:new 0 0 64 64;" xml:space="preserve">
<rect x="2" y="60" width="60" height="2"/>
<path d="M18.102,32.273c0.069,0.075,0.149,0.14,0.238,0.191l2.598,1.5l-7,12.124c-0.132,0.229-0.168,0.502-0.1,0.759
	c0.068,0.256,0.236,0.475,0.466,0.607l6.062,3.5c0.156,0.09,0.328,0.134,0.5,0.134c0.239,0,0.476-0.085,0.664-0.252L32.82,40.825
	l16.196,9.351c1.059,0.611,2.292,0.774,3.474,0.458c1.181-0.317,2.168-1.074,2.78-2.133c0.941-1.63,0.797-3.64-0.368-5.12
	l-0.672-0.855c-0.686-0.871-1.178-1.855-1.464-2.924c-0.7-2.614-2.377-4.798-4.72-6.152L18.009,16.107l-0.662-10.26
	c-0.021-0.333-0.208-0.634-0.498-0.802l-3.464-2c-0.229-0.132-0.502-0.167-0.759-0.1c-0.256,0.068-0.475,0.236-0.607,0.466
	l-7.5,12.99c-0.218,0.378-0.166,0.854,0.128,1.175L18.102,32.273z M13.251,5.278l2.134,1.232l0.541,8.395l-6.176-3.566L13.251,5.278
	z M8.751,13.072l7.794,4.5l30.5,17.609c1.716,0.991,2.978,2.54,3.615,4.396l-2.206-1.273l-1,1.732l4.33,2.5l0.03-0.052
	c0.251,0.442,0.524,0.873,0.843,1.278l0.673,0.855l0,0c0.656,0.833,0.737,1.964,0.207,2.882c-0.344,0.596-0.9,1.023-1.565,1.201
	c-0.665,0.18-1.359,0.087-1.956-0.258l-16.82-9.711c-0.372-0.214-0.841-0.168-1.164,0.118L20.742,48.862l-4.572-2.64l7-12.124
	c0.276-0.479,0.112-1.09-0.366-1.366l-3.331-1.923L6.618,16.767L8.751,13.072z"/>
<rect x="43.49" y="36.17" transform="matrix(0.5 -0.866 0.866 0.5 -9.9454 57.1133)" width="2" height="2"/>
<rect x="40.026" y="34.17" transform="matrix(0.5 -0.866 0.866 0.5 -9.9455 53.1131)" width="2" height="2"/>
<rect x="36.562" y="32.17" transform="matrix(0.5 -0.866 0.866 0.5 -9.9453 49.1134)" width="2" height="2"/>
<rect x="33.098" y="30.17" transform="matrix(0.5 -0.866 0.866 0.5 -9.9454 45.1133)" width="2" height="2"/>
<rect x="29.634" y="28.17" transform="matrix(0.5 -0.866 0.866 0.5 -9.9452 41.1136)" width="2" height="2"/>
<rect x="26.17" y="26.17" transform="matrix(0.4999 -0.8661 0.8661 0.4999 -9.944 37.1182)" width="2" height="2"/>
<rect x="22.706" y="24.17" transform="matrix(0.5 -0.866 0.866 0.5 -9.9451 33.1138)" width="2" height="2"/>
<rect x="19.242" y="22.17" transform="matrix(0.4999 -0.8661 0.8661 0.4999 -9.9443 29.1176)" width="2" height="2"/>
<rect x="15.777" y="20.17" transform="matrix(0.5 -0.866 0.866 0.5 -9.945 25.114)" width="2" height="2"/>
</svg>
